<svg width="32" height="32" viewBox="0 0 32 32" fill="none" xmlns="http://www.w3.org/2000/svg">
<path d="M27.6667 31V4.33333C27.6667 2.49238 26.1743 1 24.3333 1H7.66667C5.82572 1 4.33333 2.49238 4.33333 4.33333V31M27.6667 31L31 31M27.6667 31H19.3333M4.33333 31L1 31M4.33333 31H12.6667M11 7.66663H12.6667M11 14.3333H12.6667M19.3333 7.66663H21M19.3333 14.3333H21M12.6667 31V22.6666C12.6667 21.7462 13.4129 21 14.3333 21H17.6667C18.5871 21 19.3333 21.7462 19.3333 22.6666V31M12.6667 31H19.3333" stroke="#5D5D5D" stroke-width="2" stroke-linecap="round" stroke-linejoin="round"/>
</svg>
