<svg width="32" height="32" viewBox="0 0 32 32" fill="none" xmlns="http://www.w3.org/2000/svg">
<path d="M16 3.25696C17.2216 1.87292 19.0088 1 21 1C24.6819 1 27.6667 3.98477 27.6667 7.66667C27.6667 11.3486 24.6819 14.3333 21 14.3333C19.0088 14.3333 17.2216 13.4604 16 12.0764M21 31H1V29.3333C1 23.8105 5.47715 19.3333 11 19.3333C16.5228 19.3333 21 23.8105 21 29.3333V31ZM21 31H31V29.3333C31 23.8105 26.5228 19.3333 21 19.3333C19.1786 19.3333 17.4709 19.8203 16 20.6712M17.6667 7.66667C17.6667 11.3486 14.6819 14.3333 11 14.3333C7.3181 14.3333 4.33333 11.3486 4.33333 7.66667C4.33333 3.98477 7.3181 1 11 1C14.6819 1 17.6667 3.98477 17.6667 7.66667Z" stroke="#5D5D5D" stroke-width="2" stroke-linecap="round" stroke-linejoin="round"/>
</svg>
