<svg width="24" height="24" viewBox="0 0 24 24" fill="none" xmlns="http://www.w3.org/2000/svg">
<path d="M12 24C8.17631 24 4.55596 22.1288 2.27798 19.0373C2.23732 18.9966 2.19661 18.9152 2.23732 18.8339C2.27798 18.7525 2.35935 18.7118 2.44072 18.7118H19.3221C19.4441 18.7118 19.5255 18.7932 19.5255 18.9152C19.5255 19.0373 19.4441 19.1186 19.3221 19.1186H2.84749C5.08476 21.9254 8.46104 23.5932 12 23.5932C18.3864 23.5932 23.5932 18.3864 23.5932 12C23.5932 5.6136 18.3864 0.406811 12 0.406811C5.6136 0.406811 0.406811 5.6136 0.406811 12C0.406811 13.8305 0.813575 15.5797 1.66781 17.2068C1.70847 17.2882 1.66781 17.4102 1.58644 17.4915C1.50507 17.5322 1.38303 17.4915 1.30171 17.4102C0.447473 15.7424 0 13.9119 0 12C0 5.36949 5.36949 0 12 0C18.6305 0 24 5.36949 24 12C24 18.6305 18.6305 24 12 24ZM4.27118 17.4915C4.23052 17.4915 4.14915 17.4508 4.10849 17.4101C3.01018 15.9864 2.44068 14.1559 2.44068 12C2.44068 6.71186 6.71186 2.44068 12 2.44068C13.7085 2.44068 15.3763 2.88815 16.8407 3.74239C16.9221 3.78305 16.9627 3.90508 16.9221 4.02712C16.8814 4.10849 16.7594 4.14915 16.6374 4.10849C15.2542 3.29491 13.6271 2.84749 12 2.84749C6.95597 2.84749 2.84749 6.95597 2.84749 12C2.84749 14.0746 3.37628 15.7831 4.43393 17.1661C4.5153 17.2475 4.47459 17.3695 4.39327 17.4508C4.35256 17.4915 4.31189 17.4915 4.27118 17.4915ZM9.55935 14.6441C9.51869 14.6441 9.43731 14.6441 9.39665 14.6034C9.35599 14.5627 9.35599 14.522 9.35599 14.4407C9.35599 14.3594 9.35599 14.3187 9.39665 14.278L10.8611 12.8136C10.6984 12.5695 10.5763 12.2848 10.5763 11.9594C10.5763 11.1865 11.2272 10.5356 12.0001 10.5356C12.3255 10.5356 12.6102 10.6577 12.8543 10.8203L18.7933 4.88135C18.8746 4.79998 18.9967 4.79998 19.078 4.88135C19.1186 4.92201 19.1186 4.96272 19.1186 5.04405C19.1186 5.12537 19.1186 5.16608 19.078 5.20674L13.139 11.1457C13.3017 11.3898 13.4237 11.6745 13.4237 12C13.4237 12.7728 12.7729 13.4237 12 13.4237C11.6745 13.4237 11.3898 13.3017 11.1457 13.139L9.68133 14.6034C9.68138 14.6441 9.60001 14.6441 9.55935 14.6441ZM12 10.983C11.4305 10.983 10.9831 11.4305 10.9831 12C10.9831 12.5695 11.4306 13.0169 12 13.0169C12.5695 13.0169 13.017 12.5694 13.017 12C13.017 11.4305 12.5695 10.983 12 10.983ZM22.1695 12.2034H20.5424C20.4204 12.2034 20.339 12.122 20.339 12C20.339 11.8779 20.4204 11.7966 20.5424 11.7966H22.1695C22.2915 11.7966 22.3729 11.8779 22.3729 12C22.3729 12.122 22.2915 12.2034 22.1695 12.2034ZM20.2576 10.0068C20.1762 10.0068 20.0949 9.96611 20.0542 9.84408V9.80342C20.0542 9.72204 20.0949 9.64072 20.2169 9.60001L21.8033 9.19325C21.9254 9.15258 22.0068 9.23391 22.0474 9.35594V9.3966C22.0474 9.47797 22.0067 9.5593 21.8847 9.60001L20.2983 10.0068H20.2576ZM19.4034 7.9322C19.322 7.9322 19.2813 7.89154 19.2407 7.81016C19.2407 7.7695 19.2 7.72879 19.2 7.68813C19.2 7.60676 19.2407 7.5661 19.3221 7.52543L20.7457 6.71186C20.8271 6.6712 20.9492 6.6712 21.0305 6.79323C21.0305 6.83389 21.0711 6.8746 21.0711 6.91527C21.0711 6.99664 21.0305 7.0373 20.9491 7.07796L19.5254 7.89154C19.4847 7.9322 19.4441 7.9322 19.4034 7.9322Z" fill="#51565F"/>
</svg>
