<svg width="10" height="10" viewBox="0 0 10 10" fill="none" xmlns="http://www.w3.org/2000/svg">
<path d="M5 3V9.5M5 3C5 3 5 2.25361 5 2C5 1.44772 5.44771 1 6 1C6.55228 1 7 1.44772 7 2C7 2.55228 6.55228 3 6 3C5.70133 3 5 3 5 3ZM5 3C5 3 5 2.03146 5 1.75C5 1.05964 4.44036 0.5 3.75 0.5C3.05964 0.5 2.5 1.05964 2.5 1.75C2.5 2.44036 3.05964 3 3.75 3C4.1589 3 5 3 5 3ZM1.5 5H8.5M1.5 5C0.947715 5 0.5 4.55228 0.5 4C0.5 3.44772 0.947715 3 1.5 3H8.5C9.05228 3 9.5 3.44772 9.5 4C9.5 4.55228 9.05228 5 8.5 5M1.5 5L1.5 8.5C1.5 9.05228 1.94772 9.5 2.5 9.5H7.5C8.05228 9.5 8.5 9.05228 8.5 8.5V5" stroke="#00A479" stroke-linecap="round" stroke-linejoin="round"/>
</svg>
