<svg width="32" height="27" viewBox="0 0 32 27" fill="none" xmlns="http://www.w3.org/2000/svg">
<path d="M24.3333 8.50001V5.16668C24.3333 3.32573 22.8409 1.83334 21 1.83334H4.33333C2.49238 1.83334 1 3.32573 1 5.16668V15.1667C1 17.0076 2.49238 18.5 4.33333 18.5H7.66667M11 25.1667H27.6667C29.5076 25.1667 31 23.6743 31 21.8333V11.8333C31 9.99239 29.5076 8.50001 27.6667 8.50001H11C9.15905 8.50001 7.66667 9.99239 7.66667 11.8333V21.8333C7.66667 23.6743 9.15905 25.1667 11 25.1667ZM22.6667 16.8333C22.6667 18.6743 21.1743 20.1667 19.3333 20.1667C17.4924 20.1667 16 18.6743 16 16.8333C16 14.9924 17.4924 13.5 19.3333 13.5C21.1743 13.5 22.6667 14.9924 22.6667 16.8333Z" stroke="#5D5D5D" stroke-width="2" stroke-linecap="round" stroke-linejoin="round"/>
</svg>
