<svg width="12" height="10" viewBox="0 0 12 10" fill="none" xmlns="http://www.w3.org/2000/svg">
<path d="M8.5 9H11V8C11 7.17157 10.3284 6.5 9.5 6.5C9.0222 6.5 8.59657 6.7234 8.32188 7.07145M8.5 9H3.5M8.5 9V8C8.5 7.67188 8.43679 7.35852 8.32188 7.07145M3.5 9H1V8C1 7.17157 1.67157 6.5 2.5 6.5C2.9778 6.5 3.40343 6.7234 3.67812 7.07145M3.5 9V8C3.5 7.67188 3.56321 7.35852 3.67812 7.07145M3.67812 7.07145C4.04675 6.15051 4.94741 5.5 6 5.5C7.05259 5.5 7.95325 6.15051 8.32188 7.07145M7.5 2.5C7.5 3.32843 6.82843 4 6 4C5.17157 4 4.5 3.32843 4.5 2.5C4.5 1.67157 5.17157 1 6 1C6.82843 1 7.5 1.67157 7.5 2.5ZM10.5 4C10.5 4.55228 10.0523 5 9.5 5C8.94772 5 8.5 4.55228 8.5 4C8.5 3.44772 8.94772 3 9.5 3C10.0523 3 10.5 3.44772 10.5 4ZM3.5 4C3.5 4.55228 3.05228 5 2.5 5C1.94772 5 1.5 4.55228 1.5 4C1.5 3.44772 1.94772 3 2.5 3C3.05228 3 3.5 3.44772 3.5 4Z" stroke="#00A479" stroke-linecap="round" stroke-linejoin="round"/>
</svg>
