<svg width="18" height="16" viewBox="0 0 18 16" fill="none" xmlns="http://www.w3.org/2000/svg">
<path d="M14.8333 14.6667H3.16667C2.24619 14.6667 1.5 13.9205 1.5 13L1.5 3C1.5 2.07953 2.24619 1.33334 3.16667 1.33334L11.5 1.33334C12.4205 1.33334 13.1667 2.07953 13.1667 3V3.83334M14.8333 14.6667C13.9129 14.6667 13.1667 13.9205 13.1667 13L13.1667 3.83334M14.8333 14.6667C15.7538 14.6667 16.5 13.9205 16.5 13V5.5C16.5 4.57953 15.7538 3.83334 14.8333 3.83334L13.1667 3.83334M9.83333 1.33334L6.5 1.33334M4.83333 11.3333H9.83333M4.83333 4.66667H9.83333V8H4.83333V4.66667Z" stroke="#008365" stroke-width="1.5" stroke-linecap="round" stroke-linejoin="round"/>
</svg>
