<svg width="18" height="14" viewBox="0 0 18 14" fill="none" xmlns="http://www.w3.org/2000/svg">
<path d="M13.1667 4.5V2.83333C13.1667 1.91286 12.4205 1.16666 11.5 1.16666H3.16667C2.24619 1.16666 1.5 1.91286 1.5 2.83333V7.83333C1.5 8.75381 2.24619 9.5 3.16667 9.5H4.83333M6.5 12.8333H14.8333C15.7538 12.8333 16.5 12.0871 16.5 11.1667V6.16666C16.5 5.24619 15.7538 4.5 14.8333 4.5H6.5C5.57953 4.5 4.83333 5.24619 4.83333 6.16666V11.1667C4.83333 12.0871 5.57953 12.8333 6.5 12.8333ZM12.3333 8.66666C12.3333 9.58714 11.5871 10.3333 10.6667 10.3333C9.74619 10.3333 9 9.58714 9 8.66666C9 7.74619 9.74619 7 10.6667 7C11.5871 7 12.3333 7.74619 12.3333 8.66666Z" stroke="#004CCF" stroke-width="1.5" stroke-linecap="round" stroke-linejoin="round"/>
</svg>
