<svg width="24" height="22" viewBox="0 0 24 22" fill="none" xmlns="http://www.w3.org/2000/svg">
<path d="M16.1036 0.141714C16.046 0.139487 16.0073 0.139714 15.9964 0.152428C15.9797 0.172105 15.7265 0.948193 15.4393 1.86671C15.1521 2.78523 14.4411 5.05697 13.8536 6.92386C13.2661 8.79074 12.7984 10.354 12.8143 10.3953C12.8392 10.4603 12.9646 10.4703 13.7143 10.4703C14.4187 10.4703 14.5891 10.4891 14.6357 10.5453C14.6825 10.6016 14.5515 10.9566 13.9286 12.4631C13.5083 13.4795 13.1194 14.3975 13.0714 14.5096C13.0234 14.6217 13.0132 14.7111 13.0393 14.7024C13.1218 14.6749 18.3 8.76882 18.3 8.70243C18.3 8.65106 18.0899 8.63814 17.1964 8.63814C16.5057 8.63814 16.0898 8.62501 16.0714 8.59529C16.0553 8.56919 16.2039 8.2544 16.4036 7.89886C16.6032 7.54331 17.0817 6.67959 17.475 5.981C19.1683 2.97302 19.9584 1.57498 19.9821 1.51314C20.01 1.44055 19.2542 1.03399 18.6 0.773857C17.9296 0.507268 16.5064 0.157302 16.1036 0.141714ZM13.2536 1.30957L13.0821 1.331C12.8836 1.36171 11.8533 1.64122 11.6571 1.71671L11.5179 1.77029L11.5393 2.80957L11.55 3.84886L11.4107 3.92386C11.3342 3.96235 11.126 4.07814 10.95 4.181L10.6286 4.36314L9.77143 3.85957C9.3006 3.58171 8.9023 3.3453 8.88214 3.33457C8.82929 3.30647 8.25565 3.82249 7.89643 4.22386L7.58571 4.56671L8.12143 5.456L8.65714 6.34529L8.53929 6.53814C8.47461 6.64359 8.34998 6.85725 8.27143 7.00957L8.13214 7.28814L7.10357 7.26671L6.06429 7.24529L5.96786 7.481C5.88098 7.7086 5.68439 8.4839 5.625 8.82029L5.59286 8.99171L6.49286 9.48457L7.39286 9.97743V10.5239V11.0596L6.49286 11.5524L5.59286 12.0453L5.625 12.2167C5.67366 12.4923 5.87313 13.2602 5.96786 13.5346L6.05357 13.7917L7.09286 13.7703L8.13214 13.7489L8.27143 14.0274C8.34998 14.1797 8.47461 14.3934 8.53929 14.4989L8.65714 14.6917L8.12143 15.581L7.58571 16.4703L7.96071 16.8774C8.30032 17.249 8.80237 17.7131 8.86071 17.7131C8.87314 17.7131 9.27912 17.4846 9.76071 17.1989L10.6393 16.6739L10.95 16.8667C11.1246 16.9687 11.3342 17.0854 11.4107 17.1239L11.55 17.1881L11.5393 18.2274L11.5179 19.2667L11.6571 19.3203C11.8662 19.4003 12.5523 19.5904 12.8893 19.6631C13.0575 19.6994 13.2073 19.7361 13.2214 19.7381C13.2355 19.7402 13.4752 19.3447 13.7464 18.8596L14.2393 17.9703H14.7964H15.3536L15.8357 18.8489L16.3179 19.7167L16.4786 19.6953C16.6605 19.6768 17.5839 19.4506 17.8607 19.3524L18.0429 19.2774V18.2381V17.1881L18.1821 17.1239C18.2598 17.0847 18.4679 16.9689 18.6429 16.8667L18.9643 16.6739L19.8321 17.1989C20.308 17.4848 20.7127 17.7131 20.7429 17.7131C20.8177 17.7131 21.975 16.5467 21.975 16.4703C21.975 16.4367 21.7441 16.021 21.4607 15.5489L20.9464 14.6917L21.0643 14.4989C21.129 14.3934 21.2429 14.1797 21.3214 14.0274L21.4607 13.7489L22.5 13.7703L23.5393 13.7917L23.625 13.5346C23.7204 13.2582 23.9204 12.4888 23.9679 12.2167L24 12.0453L23.1 11.5524L22.2107 11.0596V10.5239V9.97743L23.1 9.48457C23.5916 9.21391 24.0002 8.97522 24 8.94886C23.999 8.83252 23.7602 7.87653 23.6571 7.57743L23.5393 7.24529L22.5 7.26671L21.4607 7.28814L21.3214 7.00957C21.2429 6.85721 21.129 6.64359 21.0643 6.53814L20.9464 6.34529L21.4714 5.456L22.0071 4.56671L21.6321 4.15957C21.2244 3.71341 20.7701 3.30951 20.7107 3.33457C20.6904 3.34315 20.4526 3.46861 20.1857 3.62386L19.7036 3.91314L19.0071 4.94171L18.3107 5.97029L18.7607 6.42029C19.6968 7.34869 20.2597 8.43307 20.4429 9.67743C20.5286 10.2597 20.5303 10.5727 20.4643 11.156C20.181 13.6588 18.3096 15.6648 15.8143 16.1381C15.319 16.2321 14.3035 16.2297 13.7786 16.1381C12.1382 15.8521 10.6273 14.7718 9.80357 13.2989C9.03635 11.9269 8.8775 10.2122 9.375 8.71314C9.85652 7.26223 10.9094 6.06132 12.3 5.39171C12.7459 5.17701 13.5086 4.92029 13.7036 4.92029C13.8227 4.92029 13.8456 4.8436 14.0679 3.91314L14.2607 3.12029L13.7571 2.20957L13.2536 1.30957ZM3.46071 14.0274L3.28929 14.5631L3.11786 15.0989L2.80714 15.2274L2.49643 15.356L2.00357 15.131C1.73291 15.0033 1.49997 14.8953 1.47857 14.8953C1.45719 14.8953 1.30315 15.0366 1.13571 15.206L0.825 15.506L1.07143 15.9881C1.20807 16.2521 1.31854 16.4959 1.31786 16.5239C1.31706 16.5518 1.27217 16.6942 1.21071 16.8453L1.09286 17.1239L0.557143 17.3167L0.0214286 17.5096L0.0107143 17.9596L0 18.3989L0.546429 18.581L1.08214 18.7524L1.17857 18.9774C1.34635 19.3547 1.34177 19.3912 1.08214 19.9203L0.846429 20.4131L1.15714 20.7346L1.47857 21.0453L2.00357 20.7881L2.51786 20.531L2.82857 20.6703L3.12857 20.8096L3.31071 21.3346L3.49286 21.8596H3.95357H4.40357L4.56429 21.3239L4.73571 20.7989L5.03571 20.6703L5.34643 20.531L5.88214 20.7774L6.40714 21.0239L6.71786 20.7131L7.02857 20.4024L6.78214 19.8881L6.525 19.3739L6.63214 19.0846C6.69093 18.9274 6.76337 18.7855 6.79286 18.7631C6.82234 18.7408 7.07096 18.6362 7.35 18.5381L7.86429 18.3667L7.85357 17.9167L7.83214 17.4667L7.30714 17.2953L6.77143 17.1239L6.65357 16.8453C6.59139 16.6921 6.54643 16.5449 6.54643 16.5131C6.54643 16.4814 6.64476 16.238 6.77143 15.9667L7.00714 15.4739L6.68571 15.1524L6.36429 14.831L5.86071 15.0989L5.36786 15.356L5.05714 15.2274L4.74643 15.1096L4.55357 14.5631L4.35 14.0274H3.91071H3.46071ZM3.93214 16.7167C5.07458 16.7173 5.60445 18.0978 4.75714 18.8596C4.63186 18.9722 4.44195 19.086 4.33929 19.1167C3.66204 19.3196 2.94327 18.9626 2.75357 18.3239C2.65643 17.9967 2.66068 17.8151 2.775 17.5096C2.96008 17.0149 3.40389 16.7164 3.93214 16.7167Z" fill="#00BCF2"/>
</svg>
