<svg width="36" height="30" viewBox="0 0 36 30" fill="none" xmlns="http://www.w3.org/2000/svg">
<path d="M26.3335 28.3333H34.6668V25C34.6668 22.2386 32.4283 20 29.6668 20C28.0742 20 26.6554 20.7447 25.7398 21.9048M26.3335 28.3333H9.66683M26.3335 28.3333V25C26.3335 23.9063 26.1228 22.8617 25.7398 21.9048M9.66683 28.3333H1.3335V25C1.3335 22.2386 3.57207 20 6.3335 20C7.92617 20 9.34493 20.7447 10.2606 21.9048M9.66683 28.3333V25C9.66683 23.9063 9.87754 22.8617 10.2606 21.9048M10.2606 21.9048C11.4893 18.835 14.4915 16.6667 18.0002 16.6667C21.5088 16.6667 24.511 18.835 25.7398 21.9048M23.0002 6.66666C23.0002 9.42808 20.7616 11.6667 18.0002 11.6667C15.2387 11.6667 13.0002 9.42808 13.0002 6.66666C13.0002 3.90523 15.2387 1.66666 18.0002 1.66666C20.7616 1.66666 23.0002 3.90523 23.0002 6.66666ZM33.0002 11.6667C33.0002 13.5076 31.5078 15 29.6668 15C27.8259 15 26.3335 13.5076 26.3335 11.6667C26.3335 9.82571 27.8259 8.33332 29.6668 8.33332C31.5078 8.33332 33.0002 9.82571 33.0002 11.6667ZM9.66683 11.6667C9.66683 13.5076 8.17445 15 6.3335 15C4.49255 15 3.00016 13.5076 3.00016 11.6667C3.00016 9.82571 4.49255 8.33332 6.3335 8.33332C8.17445 8.33332 9.66683 9.82571 9.66683 11.6667Z" stroke="#0A2C66" stroke-width="2" stroke-linecap="round" stroke-linejoin="round"/>
</svg>
