<svg width="26" height="24" viewBox="0 0 26 24" fill="none" xmlns="http://www.w3.org/2000/svg">
<path d="M1.22017 14.1171C0.78465 14.1171 0.547478 13.9364 0.424656 13.7847C0.303953 13.6357 0.179014 13.3717 0.265836 12.9623L2.19145 3.99355L0.981587 4.06201H0.972411C0.607477 4.06201 0.342776 3.94343 0.176896 3.73802C0.021605 3.54602 -0.0341587 3.29968 0.0208991 3.04627C0.12678 2.55075 0.644182 2.13852 1.19758 2.10817L4.02671 1.94794C4.08177 1.94441 4.13259 1.94229 4.17988 1.94229C4.28364 1.94229 4.55823 1.94229 4.73258 2.15828C4.91046 2.37852 4.85046 2.65875 4.83069 2.75051L2.62556 13.0259C2.49356 13.6498 1.97686 14.0769 1.3084 14.1143L1.22017 14.1171ZM8.80333 12.7054C7.78758 12.7054 6.94336 12.3249 6.36172 11.6049C5.5408 10.5892 5.32621 9.02781 5.74197 7.08949C6.47043 3.69284 8.71227 1.31124 11.3198 1.16371C12.4421 1.10089 13.371 1.48277 13.9971 2.25711C14.818 3.27285 15.0326 4.83424 14.6169 6.77255C13.8884 10.1678 11.6466 12.5494 9.03767 12.6976C8.95862 12.7033 8.88027 12.7054 8.80333 12.7054ZM11.2132 3.0025L11.1165 3.00533C9.74707 3.08368 8.60709 4.63165 8.0671 7.14596C7.7297 8.71863 7.79817 9.89814 8.2591 10.4685C8.46874 10.7282 8.76521 10.8602 9.14073 10.8602L9.23955 10.8574C10.6089 10.7805 11.7482 9.23321 12.2875 6.7182C12.6249 5.14552 12.5571 3.96531 12.0969 3.39497C11.888 3.1345 11.5901 3.0025 11.2132 3.0025ZM19.3949 11.5485C18.3792 11.5485 17.5335 11.168 16.9512 10.4473C16.1303 9.43156 15.9157 7.87018 16.3314 5.93186C17.0606 2.53451 19.3024 0.153616 21.9099 0.00679476C23.0414 -0.0567335 23.959 0.326554 24.5852 1.10019C25.4061 2.11593 25.6207 3.67732 25.2049 5.61493C24.4772 9.00945 22.236 11.3911 19.6271 11.5414C19.5481 11.5471 19.4711 11.5485 19.3949 11.5485ZM21.8026 1.84488L21.7066 1.8477C20.3365 1.92605 19.1965 3.47403 18.6573 5.98763C18.3199 7.56101 18.3883 8.74122 18.8493 9.31086C19.0589 9.57062 19.3568 9.70262 19.7323 9.70262L19.8311 9.69979C21.1998 9.62285 22.3398 8.07488 22.8791 5.56058C23.2172 3.9886 23.1494 2.80839 22.6885 2.23805C22.4781 1.97688 22.1803 1.84488 21.8026 1.84488ZM7.76499 24C7.19324 24 6.65536 23.6499 6.4429 23.0831C6.16902 22.3532 6.5389 21.5393 7.26877 21.2655C7.50664 21.1765 13.1974 19.0716 21.7645 18.3573C22.5417 18.2895 23.2235 18.8704 23.2885 19.6469C23.3534 20.4241 22.7753 21.1059 21.9988 21.1709C13.8178 21.8527 8.31486 23.8892 8.25981 23.9097C8.09746 23.9704 7.92946 24 7.76499 24ZM1.41287 19.7641C0.845355 19.7641 0.3096 19.4196 0.0943095 18.8584C-0.185215 18.1307 0.177602 17.314 0.905353 17.0352C1.28793 16.8877 10.4459 13.4169 23.9252 12.7075C24.7108 12.6588 25.3687 13.2644 25.4096 14.043C25.4513 14.8216 24.8527 15.4865 24.0741 15.5275C11.0699 16.2121 2.00792 19.6363 1.91757 19.6709C1.75169 19.7337 1.58087 19.7641 1.41287 19.7641Z" fill="#BB1A34"/>
</svg>
